# xmcd
#
# Track frame offsets: 
#        150
#        10133
#        28411
#        40030
#        54254
#        62957
#        71789
#        85383
#        96080
#        109328
#
# Disc length: 1769 seconds
#
# Revision: 1
# Processed by: cddbd v1.5.1PL2 Copyright (c) Steve Scherf et al.
# Submitted via: ExactAudioCopy v0.95a5
#
DISCID=8706e70a
DTITLE=Joe McDermott - Great Big World
DYEAR=2000
DGENRE=Childrens
TTITLE0=Let the Dog Go Out
TTITLE1=Don't Get Close to the Alligator
TTITLE2=Let's Go to the Beach
TTITLE3=Clap Your Hands
TTITLE4=My Cat Can Fly
TTITLE5=Way Out West
TTITLE6=Everything Grows
TTITLE7=I Got Stuck In an Elevator
TTITLE8=Come to Hawaii
TTITLE9=Great Big World
EXTD=YEAR: 2000 ID3G: 2
EXTT0=
EXTT1=
EXTT2=
EXTT3=
EXTT4=
EXTT5=
EXTT6=
EXTT7=
EXTT8=
EXTT9=
PLAYORDER=
